<svg xmlns="http://www.w3.org/2000/svg" xmlns:xlink="http://www.w3.org/1999/xlink" width="311.736" height="126.223" viewBox="0 0 311.736 126.223"><defs><clipPath id="a"><rect width="311.736" height="126.223" fill="none"/></clipPath></defs><g transform="translate(0 0)"><g transform="translate(0 0)" clip-path="url(#a)"><path d="M0,71.471v-.059A10.68,10.68,0,0,1,10.984,60.635a10.133,10.133,0,0,1,9.36,5.372l-5.7,3.337a4.014,4.014,0,0,0-3.751-2.508c-2.332,0-3.867,2.035-3.867,4.516v.06c0,2.686,1.6,4.576,3.867,4.576a4.237,4.237,0,0,0,3.9-2.6l5.7,3.218a10.445,10.445,0,0,1-9.772,5.581A10.531,10.531,0,0,1,0,71.471" transform="translate(0 44.035)" fill="#fff"/><path d="M12.639,60.891h10.1c3.661,0,5.994.915,7.44,2.361a6.5,6.5,0,0,1,1.89,4.9v.059a6.687,6.687,0,0,1-4.076,6.32L32.8,81.558H24.921l-3.9-5.9H19.547v5.9H12.639Zm9.891,9.831c1.654,0,2.657-.737,2.657-2.008v-.059c0-1.329-1.032-1.978-2.627-1.978H19.547v4.045Z" transform="translate(9.179 44.221)" fill="#fff"/><path d="M23.875,78.62l3.691-4.4A11.847,11.847,0,0,0,34.8,76.642c1.239,0,1.771-.325,1.771-.886V75.7c0-.592-.649-.917-2.864-1.359C29.071,73.393,25,72.066,25,67.695v-.059c0-3.927,3.071-6.967,8.769-6.967,3.986,0,6.939.944,9.33,2.834l-3.366,4.664a10.839,10.839,0,0,0-6.2-2.037c-1.032,0-1.505.354-1.505.856v.059c0,.561.561.915,2.746,1.327,5.284.975,8.828,2.51,8.828,6.674v.059c0,4.341-3.573,7-9.123,7a15.973,15.973,0,0,1-10.6-3.484" transform="translate(17.339 44.059)" fill="#fff"/><path d="M35.665,71.471v-.059A10.68,10.68,0,0,1,46.649,60.635a10.133,10.133,0,0,1,9.36,5.372l-5.7,3.337a4.014,4.014,0,0,0-3.751-2.508c-2.332,0-3.867,2.035-3.867,4.516v.06c0,2.686,1.593,4.576,3.867,4.576a4.237,4.237,0,0,0,3.9-2.6l5.7,3.218a10.445,10.445,0,0,1-9.772,5.581A10.531,10.531,0,0,1,35.665,71.471" transform="translate(25.901 44.035)" fill="#f79400"/><path d="M48.3,60.891H58.4c3.661,0,5.994.915,7.44,2.361a6.5,6.5,0,0,1,1.89,4.9v.059a6.687,6.687,0,0,1-4.076,6.32l4.813,7.026H60.585l-3.9-5.9H55.211v5.9H48.3Zm9.891,9.831c1.654,0,2.657-.737,2.657-2.008v-.059c0-1.329-1.032-1.978-2.627-1.978H55.211v4.045Z" transform="translate(35.08 44.221)" fill="#f79400"/><path d="M67.941,60.8h6.851L83.5,81.62H76L74.91,78.846H67.677L66.613,81.62H59.232ZM73.2,73.943l-1.89-5.018-1.888,5.018Z" transform="translate(43.017 44.158)" fill="#f79400"/><path d="M73.786,60.891h6.466L87.6,70.014V60.891h6.85V81.559H88.312l-7.677-9.537v9.537h-6.85Z" transform="translate(53.586 44.221)" fill="#f79400"/><path d="M87.126,60.891h17.627V66.56H93.917v2.1h10.1v4.991h-10.1V75.89H104.9v5.669H87.126Z" transform="translate(63.275 44.221)" fill="#f79400"/><path d="M97.792,78.62l3.691-4.4a11.847,11.847,0,0,0,7.235,2.422c1.239,0,1.771-.325,1.771-.886V75.7c0-.592-.649-.917-2.866-1.359-4.635-.946-8.709-2.273-8.709-6.644v-.059c0-3.927,3.071-6.967,8.769-6.967,3.986,0,6.938.944,9.33,2.834l-3.366,4.664a10.839,10.839,0,0,0-6.2-2.037c-1.034,0-1.505.354-1.505.856v.059c0,.561.561.915,2.745,1.327,5.286.975,8.83,2.51,8.83,6.674v.059c0,4.341-3.573,7-9.125,7a15.972,15.972,0,0,1-10.6-3.484" transform="translate(71.02 44.059)" fill="#fff"/><path d="M116.464,74.236,108.67,60.891H116.4l3.542,6.791,3.573-6.791h7.647l-7.794,13.258v7.411h-6.91Z" transform="translate(78.92 44.221)" fill="#fff"/><path d="M120.521,78.62l3.691-4.4a11.85,11.85,0,0,0,7.235,2.422c1.241,0,1.771-.325,1.771-.886V75.7c0-.592-.649-.917-2.864-1.359-4.637-.946-8.711-2.273-8.711-6.644v-.059c0-3.927,3.071-6.967,8.769-6.967,3.986,0,6.939.944,9.33,2.834l-3.364,4.664a10.848,10.848,0,0,0-6.2-2.037c-1.032,0-1.505.354-1.505.856v.059c0,.561.561.915,2.746,1.327,5.284.975,8.828,2.51,8.828,6.674v.059c0,4.341-3.573,7-9.123,7a15.973,15.973,0,0,1-10.6-3.484" transform="translate(87.527 44.059)" fill="#fff"/><path d="M138.062,66.737h-6.082V60.89h19.073v5.847h-6.082V81.559h-6.91Z" transform="translate(95.85 44.22)" fill="#fff"/><path d="M143.935,60.891h17.628V66.56H150.726v2.1h10.1v4.991h-10.1V75.89H161.71v5.669H143.935Z" transform="translate(104.531 44.221)" fill="#fff"/><path d="M155.308,60.891h7.2l4.43,7.264,4.43-7.264h7.2V81.559H171.7V71.314l-4.754,7.352h-.117l-4.754-7.352V81.559h-6.762Z" transform="translate(112.791 44.221)" fill="#fff"/><path d="M169.161,78.62l3.691-4.4a11.851,11.851,0,0,0,7.235,2.422c1.241,0,1.771-.325,1.771-.886V75.7c0-.592-.649-.917-2.864-1.359-4.637-.946-8.711-2.273-8.711-6.644v-.059c0-3.927,3.071-6.967,8.769-6.967,3.986,0,6.939.944,9.33,2.834l-3.364,4.664a10.848,10.848,0,0,0-6.2-2.037c-1.032,0-1.505.354-1.505.856v.059c0,.561.561.915,2.746,1.327,5.284.975,8.828,2.51,8.828,6.674v.059c0,4.341-3.573,7-9.123,7a15.973,15.973,0,0,1-10.6-3.484" transform="translate(122.851 44.059)" fill="#fff"/><path d="M106.535,36l7.1,4.086.017,12.74-11.024,6.384-7.1-4.086-13.66-7.863-8.61,4.987.014,9.969,13.649,7.858,15.731,9.054,28.262-16.366-.043-32.659-15.731-9.054-13.649-7.858-8.628,5,.014,9.952Z" transform="translate(53.203 9.582)" fill="#fff"/><path d="M97.48,43.128l-7.1-4.086L90.365,26.3l11.024-6.384,7.1,4.086,13.66,7.863,8.611-4.987-.014-9.969L117.094,9.054,101.363,0,73.1,16.366l.043,32.659,15.731,9.054,13.649,7.858,8.628-5-.014-9.952Z" transform="translate(53.089 -0.001)" fill="#f79400"/></g></g></svg>