<svg xmlns="http://www.w3.org/2000/svg" xmlns:xlink="http://www.w3.org/1999/xlink" width="243.855" height="114.857" viewBox="0 0 243.855 114.857"><defs><clipPath id="a"><rect width="243.855" height="114.856" fill="none"/></clipPath></defs><g transform="translate(0.001 0)"><path d="M25.735,35.958l.017,12.883L43.435,59.019l9.19,5.29L52.647,80.8,38.375,89.066l-9.191-5.29L11.5,73.6.353,80.054.37,92.96l17.673,10.173,20.365,11.723L75,93.667l-.054-42.282L54.576,39.662,36.9,29.49Z" fill="#005c85"/><path d="M36.59,0,0,21.189.056,63.471,20.42,75.194,38.093,85.366,49.263,78.9l-.017-12.882L31.563,55.837l-9.189-5.29-.022-16.493L36.623,25.79l9.19,5.29L63.5,41.258,74.645,34.8l-.017-12.907L56.955,11.723Z" fill="#f79400"/><g clip-path="url(#a)"><path d="M89.83,58.408v-.15c0-15.593,12.16-27.233,27.752-27.233,11.492,0,19.249,5.6,23.652,13.58l-14.4,8.429c-1.938-3.729-4.7-6.341-9.473-6.341-5.9,0-9.773,5.148-9.773,11.416v.149c0,6.789,4.027,11.564,9.773,11.564,4.925,0,7.685-2.685,9.849-6.566l14.4,8.133c-4.4,7.76-11.715,14.1-24.7,14.1-14.475,0-27.08-10.893-27.08-27.082" fill="#005c85"/><path d="M144.983,32.146H170.5c9.251,0,15.146,2.313,18.8,5.969,3.135,3.132,4.775,7.012,4.775,12.384v.148c0,7.612-3.954,12.909-10.295,15.968l12.16,17.756H176.02l-9.849-14.922H162.44V84.371H144.983ZM169.975,56.99c4.18,0,6.713-1.865,6.713-5.074v-.148c0-3.359-2.61-5-6.64-5H162.44V56.99Z" fill="#005c85"/><path d="M194.018,76.537l9.327-11.116a29.935,29.935,0,0,0,18.279,6.118c3.132,0,4.475-.821,4.475-2.239v-.148c0-1.493-1.639-2.315-7.235-3.434-11.715-2.387-22.009-5.744-22.009-16.787v-.148c0-9.924,7.757-17.608,22.159-17.608,10.072,0,17.533,2.387,23.575,7.162l-8.506,11.788a27.386,27.386,0,0,0-15.668-5.147c-2.61,0-3.8.894-3.8,2.163v.149c0,1.419,1.416,2.313,6.94,3.357,13.354,2.462,22.305,6.343,22.305,16.862v.15c0,10.968-9.028,17.681-23.054,17.681-10.594,0-20.144-2.984-26.784-8.8" fill="#005c85"/></g></g></svg>